<?xml version="1.0" standalone="no"?>
<!DOCTYPE svg PUBLIC "-//W3C//DTD SVG 20010904//EN"
 "http://www.w3.org/TR/2001/REC-SVG-20010904/DTD/svg10.dtd">
<svg version="1.0" xmlns="http://www.w3.org/2000/svg"
 width="2048.000000pt" height="2048.000000pt" viewBox="0 0 2048.000000 2048.000000"
 preserveAspectRatio="xMidYMid meet">

<g transform="translate(0.000000,2048.000000) scale(0.100000,-0.100000)"
fill="#000000" stroke="none">
<path d="M0 10240 l0 -10240 10240 0 10240 0 0 10240 0 10240 -10240 0 -10240
0 0 -10240z m6953 2750 c141 -26 244 -101 298 -217 26 -55 29 -72 29 -162 0
-83 -5 -115 -26 -178 -15 -43 -40 -97 -55 -121 -16 -24 -29 -46 -29 -49 0 -10
-92 -116 -149 -172 -84 -81 -256 -206 -359 -260 -15 -8 -29 -17 -32 -20 -5 -5
-23 -15 -130 -66 -71 -34 -256 -103 -295 -110 -22 -4 -44 -10 -50 -15 -16 -13
-160 -41 -327 -64 -86 -11 -161 -25 -167 -31 -5 -5 -27 -62 -49 -125 -45 -129
-113 -296 -142 -349 -11 -20 -24 -47 -30 -61 -6 -14 -22 -43 -35 -65 -13 -22
-34 -57 -45 -77 -11 -21 -50 -74 -86 -119 -36 -45 -64 -82 -62 -83 2 -1 53 1
113 5 66 5 268 2 509 -6 562 -21 668 -20 763 6 68 19 149 53 163 68 3 4 18 13
34 21 31 16 37 12 91 -64 11 -15 28 -37 38 -48 9 -12 17 -26 17 -32 0 -25
-169 -184 -239 -224 -40 -23 -78 -42 -84 -42 -7 0 -25 -8 -42 -17 -24 -13 -64
-17 -195 -19 l-165 -4 -6 -232 c-4 -128 -10 -246 -13 -263 -4 -16 -13 -95 -21
-175 -18 -186 -78 -633 -90 -671 -4 -12 -13 -60 -20 -107 -23 -143 -46 -259
-95 -477 -14 -63 -12 -71 13 -39 12 17 29 38 37 46 8 9 22 26 30 38 8 12 20
28 25 34 6 6 35 45 65 86 30 41 59 80 65 86 5 6 17 22 25 34 8 12 40 55 70 95
30 40 64 85 75 100 87 119 243 333 287 393 29 40 59 80 65 90 14 18 97 130
110 147 5 6 21 30 38 55 16 25 36 49 42 53 7 4 13 13 13 19 0 6 7 18 15 27 15
15 72 92 105 141 8 13 25 35 38 50 12 15 22 31 22 34 0 3 7 14 16 24 14 16 69
91 104 142 8 12 20 28 26 34 5 6 32 43 59 81 83 119 89 129 113 155 31 35 38
61 18 72 -9 5 -16 14 -16 19 0 6 -9 29 -19 52 -10 23 -22 76 -26 117 -7 76 9
245 24 265 5 5 12 24 15 41 17 79 108 255 173 334 103 125 225 250 318 323 38
30 156 112 185 128 19 11 53 31 75 44 48 30 200 105 212 105 4 0 19 6 33 13
77 40 287 93 425 107 55 6 112 13 126 16 26 5 26 4 33 -67 3 -40 3 -76 -2 -81
-5 -5 -40 -14 -78 -22 -124 -25 -328 -81 -349 -96 -5 -4 -28 -13 -50 -20 -22
-7 -42 -16 -45 -19 -3 -3 -36 -21 -75 -40 -38 -19 -92 -49 -120 -68 -27 -18
-58 -39 -69 -46 -62 -41 -177 -145 -256 -233 -136 -151 -195 -339 -161 -506
12 -58 51 -112 97 -136 39 -20 117 -24 189 -9 239 50 625 429 863 847 18 30
36 61 41 69 7 11 23 6 82 -27 41 -23 83 -47 93 -55 22 -16 31 9 -72 -208 -28
-58 -54 -118 -57 -132 -4 -15 -11 -27 -15 -27 -4 0 -11 -12 -15 -27 -3 -16
-13 -41 -20 -58 -48 -105 -80 -239 -70 -302 12 -85 92 -135 176 -113 23 6 46
16 53 21 6 5 43 33 81 62 77 60 74 60 149 0 l27 -22 -34 -53 c-63 -97 -210
-223 -313 -268 -48 -21 -54 -36 -54 -132 0 -37 -7 -100 -15 -140 -8 -40 -19
-95 -24 -123 -23 -119 -71 -297 -82 -305 -3 -3 -12 -30 -19 -60 -7 -30 -16
-59 -19 -65 -4 -5 -20 -44 -36 -85 -16 -41 -32 -79 -37 -85 -4 -5 -8 -16 -8
-24 0 -8 -9 -33 -19 -55 -56 -120 -71 -154 -71 -164 0 -7 -4 -12 -9 -12 -5 0
-12 -11 -15 -25 -3 -13 -20 -47 -36 -75 -17 -28 -30 -53 -30 -56 0 -6 -160
-284 -172 -299 -26 -32 -88 -127 -88 -135 0 -4 -3 -10 -8 -12 -4 -1 -39 -46
-77 -98 -39 -52 -77 -102 -85 -110 -8 -9 -35 -40 -60 -69 -185 -220 -404 -397
-547 -444 -54 -18 -188 -23 -197 -8 -3 5 -21 12 -39 15 -59 11 -143 88 -182
166 -14 30 -31 63 -35 72 -5 9 -14 47 -20 85 -7 37 -16 84 -21 103 -21 73 7
508 41 630 5 19 16 78 25 130 17 99 34 185 59 305 8 39 21 106 30 150 9 44 20
94 25 110 5 17 12 46 16 65 7 33 6 34 -9 15 -67 -85 -96 -126 -96 -134 0 -6
-6 -14 -13 -18 -6 -4 -26 -28 -42 -53 -34 -52 -32 -48 -85 -117 -22 -29 -40
-57 -40 -62 0 -5 -3 -11 -8 -13 -4 -1 -28 -32 -54 -68 -26 -36 -51 -69 -55
-75 -5 -5 -46 -62 -93 -125 -46 -63 -89 -121 -95 -127 -11 -14 -12 -14 -140
-183 -107 -142 -101 -135 -135 -176 -14 -16 -34 -43 -45 -58 -11 -16 -27 -36
-36 -45 -8 -9 -48 -59 -89 -111 -40 -52 -78 -99 -84 -105 -6 -5 -33 -37 -61
-70 -105 -127 -234 -258 -287 -291 -38 -24 -92 -32 -103 -15 -3 5 -18 12 -33
16 -31 6 -112 74 -112 93 0 6 -4 12 -9 12 -15 0 -31 60 -31 114 0 57 8 89 75
306 10 30 25 82 35 115 9 33 19 67 22 75 7 18 36 135 52 210 7 30 15 62 19 70
7 17 31 157 52 304 8 55 17 107 20 117 5 16 25 197 45 419 5 52 12 245 16 428
l7 332 -129 2 c-71 2 -277 3 -458 3 l-328 0 -34 39 c-29 34 -34 46 -34 92 0
29 4 55 9 58 5 3 12 18 16 33 6 28 17 52 100 228 78 164 95 204 95 217 0 8 7
23 15 34 8 10 15 26 15 34 0 8 9 33 20 55 11 22 19 46 20 53 0 8 6 28 14 45
26 62 55 142 62 172 4 17 12 41 19 55 7 14 15 37 18 51 7 27 7 27 -71 34 -42
3 -108 16 -147 27 -105 30 -265 114 -265 139 0 5 65 124 85 156 1 2 32 -13 70
-32 37 -19 73 -35 80 -35 7 0 26 -7 41 -15 16 -8 40 -15 54 -15 14 0 41 -4 60
-9 19 -5 65 -12 101 -15 l66 -6 18 42 c10 24 37 84 61 134 24 49 44 96 44 102
0 7 4 12 9 12 5 0 14 12 20 28 6 15 24 50 41 77 17 28 33 58 37 68 3 9 9 17
13 17 4 0 11 10 17 23 44 95 363 453 421 471 12 4 22 11 22 16 0 10 135 100
150 100 5 0 10 4 10 9 0 5 16 15 35 21 19 6 35 16 35 21 0 5 4 9 10 9 8 0 52
18 145 60 11 5 40 14 65 20 25 6 56 15 70 20 68 26 306 37 403 20z m3156 -991
c30 -10 56 -21 59 -24 3 -2 -22 -89 -56 -192 -33 -104 -70 -222 -82 -263 -11
-41 -27 -95 -35 -120 -8 -25 -19 -65 -25 -90 -16 -77 -42 -174 -50 -195 -5
-11 -16 -51 -24 -90 -8 -38 -18 -80 -21 -92 -5 -14 -3 -23 3 -23 6 0 14 10 18
22 3 12 22 43 40 70 19 26 34 51 34 54 0 4 11 22 25 40 14 18 25 37 25 42 0 6
3 12 8 14 4 2 20 23 37 48 39 59 146 201 199 265 148 179 343 347 456 395 14
5 34 15 44 21 93 54 267 70 347 32 56 -26 125 -102 139 -152 19 -68 8 -223
-20 -286 -5 -11 -21 -49 -35 -85 -15 -36 -35 -83 -46 -106 -10 -22 -19 -46
-19 -52 0 -7 -4 -12 -9 -12 -5 0 -12 -11 -15 -25 -3 -13 -25 -64 -47 -112 -23
-48 -50 -108 -61 -133 -11 -25 -23 -52 -28 -61 -4 -8 -17 -49 -29 -91 -19 -72
-20 -79 -4 -125 20 -61 23 -65 78 -93 42 -22 48 -22 87 -9 43 14 114 67 207
154 29 27 58 49 64 47 6 -2 28 -17 49 -34 l39 -30 -32 -57 c-56 -99 -173 -229
-263 -290 -12 -8 -23 -17 -26 -20 -9 -11 -45 -31 -100 -57 -232 -108 -460 8
-460 235 0 100 16 147 124 374 36 75 66 142 66 147 0 6 4 10 8 10 5 0 15 19
21 43 7 23 16 47 21 52 4 6 20 49 35 97 22 71 26 102 23 158 -4 69 -5 72 -47
110 -52 47 -72 54 -151 48 -74 -5 -174 -55 -249 -124 -60 -55 -161 -176 -161
-193 0 -6 -4 -11 -9 -11 -9 0 -16 -10 -57 -87 -10 -18 -21 -33 -26 -33 -4 0
-8 -4 -8 -9 0 -5 -18 -39 -41 -76 -96 -158 -354 -679 -384 -775 -14 -46 -8
-46 -175 12 -52 19 -100 37 -106 41 -8 4 -9 19 -2 49 5 24 15 80 23 125 7 46
18 97 23 115 6 18 14 53 18 78 3 25 18 88 31 140 13 52 33 129 43 170 23 94
37 144 54 195 8 22 26 81 41 130 15 50 33 104 40 120 7 17 16 46 20 65 4 19
11 40 15 45 4 6 13 28 20 50 7 22 16 44 21 50 5 5 9 15 9 23 0 20 94 235 136
310 40 71 38 71 153 31z m3906 -1034 c50 -15 93 -29 97 -31 3 -2 -31 -80 -77
-172 -46 -92 -101 -205 -123 -252 -22 -47 -67 -141 -100 -210 -94 -197 -120
-254 -127 -283 -4 -15 -11 -27 -16 -27 -5 0 -9 -5 -9 -12 0 -6 -9 -30 -19 -52
-27 -59 -44 -98 -91 -211 -23 -55 -48 -114 -56 -132 -8 -17 -14 -35 -14 -40
-1 -4 -9 -26 -20 -48 -11 -22 -19 -44 -20 -48 0 -5 -6 -23 -14 -40 -25 -60
-56 -142 -56 -151 0 -4 -6 -22 -14 -39 -23 -55 -53 -138 -96 -267 -23 -69 -48
-138 -55 -155 -7 -16 -16 -46 -20 -65 -4 -19 -11 -41 -16 -50 -4 -8 -20 -55
-34 -105 -15 -49 -31 -99 -35 -110 -18 -40 -37 -135 -28 -135 6 0 12 9 15 20
3 11 9 20 14 20 5 0 9 5 9 10 0 9 37 71 62 105 11 14 110 162 123 182 6 9 16
23 23 32 7 9 39 50 71 92 31 42 65 84 74 93 9 10 17 21 17 25 0 17 188 196
269 258 47 35 119 80 160 101 l76 37 135 0 c122 0 139 -2 180 -23 84 -43 110
-77 130 -168 8 -35 6 -65 -11 -147 -12 -56 -24 -106 -29 -112 -4 -5 -10 -23
-14 -39 -8 -31 -66 -183 -98 -256 -79 -176 -88 -199 -88 -207 0 -8 -37 -108
-50 -134 -4 -8 -13 -42 -20 -75 -6 -32 -16 -73 -22 -90 -8 -24 -7 -42 6 -82
19 -58 35 -70 98 -78 36 -5 53 0 103 26 33 18 64 39 68 46 4 8 13 14 18 14 6
0 17 7 26 15 16 16 23 13 97 -49 l29 -24 -56 -73 c-74 -99 -126 -144 -222
-193 l-80 -41 -130 0 c-118 0 -134 2 -171 23 -54 31 -87 85 -103 167 -11 54
-11 79 -2 124 19 87 64 255 72 266 4 6 12 26 17 45 6 19 22 64 35 100 89 236
112 309 134 423 7 35 -13 85 -46 117 -23 23 -33 25 -116 25 -88 0 -91 -1 -148
-39 -87 -58 -119 -87 -247 -225 -19 -21 -45 -51 -57 -67 -33 -44 -126 -170
-143 -194 -8 -12 -25 -36 -37 -53 -13 -17 -23 -37 -23 -44 0 -7 -4 -13 -8 -13
-5 0 -16 -15 -25 -32 -9 -18 -21 -40 -27 -48 -40 -60 -134 -240 -173 -330 -54
-127 -62 -140 -84 -140 -21 0 -135 38 -200 66 -17 8 -36 14 -42 14 -14 0 -14
13 0 65 6 22 16 67 23 100 24 105 48 199 56 220 5 11 14 47 21 79 6 33 15 67
19 75 5 9 18 50 30 91 26 89 97 306 109 335 5 11 21 56 36 100 15 44 33 94 41
112 8 17 14 37 14 45 1 7 9 31 20 53 11 22 19 48 20 57 0 9 4 19 9 22 5 3 12
18 16 33 3 15 14 45 24 68 10 22 25 58 33 80 19 49 66 163 78 190 5 11 21 49
35 85 28 71 49 118 70 165 56 120 86 190 91 211 3 13 10 24 15 24 5 0 9 5 9
12 0 6 9 31 20 55 11 24 29 62 39 86 24 54 93 201 137 293 19 39 34 77 34 83
0 6 4 11 8 11 5 0 15 18 22 40 7 22 17 40 22 40 4 0 8 5 8 11 0 9 127 272 169
347 8 16 16 20 24 14 7 -5 53 -21 102 -37z m-1447 -1480 c40 -7 75 -15 78 -18
5 -5 -6 -61 -32 -163 -2 -9 -38 -11 -126 -7 -325 13 -495 -65 -528 -243 -10
-51 -10 -71 0 -97 23 -57 69 -150 105 -212 19 -33 40 -71 47 -85 6 -14 17 -32
24 -40 33 -41 152 -278 160 -319 4 -17 10 -31 15 -31 5 0 9 -43 9 -95 0 -52
-4 -95 -9 -95 -5 0 -11 -18 -15 -41 -18 -112 -128 -236 -263 -295 -32 -14 -67
-30 -78 -35 -57 -26 -278 -37 -376 -19 -78 15 -171 58 -244 114 -52 39 -154
147 -155 164 0 6 -4 12 -8 12 -5 0 -15 12 -23 28 -8 15 -16 29 -19 32 -3 3
-13 17 -23 32 l-17 27 58 43 c67 52 108 78 120 78 4 0 33 -24 64 -52 181 -171
236 -212 302 -229 149 -37 294 54 326 204 9 45 8 62 -9 112 -18 56 -40 109
-61 145 -5 8 -23 42 -40 75 -18 33 -36 62 -40 65 -3 3 -22 31 -41 62 -125 209
-150 252 -155 276 -4 15 -14 38 -23 52 -12 18 -16 50 -16 125 0 94 2 104 35
170 27 53 49 81 94 117 61 49 140 92 191 104 17 4 35 10 40 15 12 8 176 37
250 42 79 7 303 -4 383 -18z m-1904 -107 c13 -62 14 -128 3 -135 -6 -3 -41
-12 -77 -19 -186 -36 -330 -81 -468 -146 -48 -23 -89 -44 -92 -47 -3 -4 -16
-12 -30 -19 -53 -27 -142 -85 -173 -114 -14 -13 -38 -32 -53 -43 -63 -46 -186
-178 -252 -270 -17 -24 -62 -123 -62 -136 0 -8 -6 -21 -12 -27 -9 -9 -13 -50
-12 -135 1 -102 4 -128 20 -158 47 -84 93 -109 203 -109 44 0 83 5 86 10 3 6
13 10 22 10 18 0 122 49 141 67 6 6 21 15 32 18 11 3 20 10 20 15 0 5 8 11 18
14 9 3 31 18 48 33 16 16 56 50 88 78 89 76 356 380 356 406 0 4 6 14 13 21
17 18 74 107 131 206 47 81 58 92 72 71 3 -6 18 -16 33 -23 29 -13 131 -76
131 -81 0 -2 -22 -50 -50 -108 -27 -58 -50 -110 -50 -116 0 -6 -4 -11 -8 -11
-5 0 -15 -19 -22 -42 -7 -24 -15 -45 -19 -48 -8 -6 -62 -142 -99 -250 -35
-101 -37 -193 -4 -235 34 -44 72 -65 115 -65 47 0 82 18 174 88 68 51 75 54
100 43 16 -7 41 -23 57 -36 l30 -24 -20 -37 c-25 -48 -156 -183 -219 -226 -27
-18 -72 -45 -100 -58 -27 -14 -52 -28 -55 -31 -9 -11 -110 -29 -163 -29 -58 1
-132 15 -150 30 -88 71 -109 119 -109 256 0 97 10 150 47 257 7 20 11 37 9 37
-3 0 -69 -64 -147 -142 -154 -154 -184 -180 -294 -262 -74 -54 -196 -119 -248
-132 -17 -4 -35 -10 -41 -15 -21 -16 -161 -31 -250 -27 -180 10 -278 100 -308
283 -11 74 -11 97 5 202 16 108 29 154 73 254 21 51 88 163 98 167 4 2 8 8 8
14 0 35 326 378 359 378 5 0 11 4 13 8 2 4 26 23 53 42 28 19 52 37 55 41 26
28 356 199 385 199 8 0 16 4 19 9 3 5 30 15 58 21 29 7 58 16 63 20 22 15 196
51 310 64 66 7 123 14 127 15 4 0 10 -9 12 -21z"/>
<path d="M6439 12741 c-159 -52 -303 -161 -417 -316 -34 -47 -92 -141 -117
-190 -16 -33 -36 -65 -42 -73 -7 -7 -13 -20 -13 -29 0 -8 -6 -27 -14 -41 -29
-55 -87 -232 -103 -311 l-6 -34 76 6 c115 8 272 47 402 98 259 102 496 286
577 448 13 25 27 49 31 52 18 13 36 163 26 209 -10 43 -57 130 -71 130 -4 0
-13 6 -20 13 -54 53 -207 72 -309 38z"/>
<path d="M8510 10671 c-166 -168 -209 -205 -330 -285 -95 -62 -143 -88 -190
-101 -14 -3 -34 -10 -45 -15 -11 -5 -42 -13 -70 -17 l-50 -8 -24 -75 c-13 -41
-29 -88 -36 -105 -7 -16 -16 -47 -19 -69 -4 -21 -11 -46 -16 -55 -9 -18 -45
-135 -59 -196 -5 -22 -19 -76 -31 -120 -12 -44 -28 -107 -35 -140 -8 -33 -23
-103 -35 -155 -24 -105 -41 -191 -70 -350 -54 -295 -71 -436 -71 -602 -1 -133
2 -160 20 -207 12 -29 32 -62 44 -72 34 -28 106 -25 170 9 120 63 416 402 513
587 8 17 26 48 39 70 36 62 115 222 115 234 0 6 5 11 10 11 6 0 10 5 10 11 0
12 43 117 66 161 8 14 14 32 14 40 0 7 6 24 13 38 7 14 26 66 41 115 15 50 32
101 36 115 17 49 61 230 76 315 48 270 56 482 23 580 -13 38 -20 85 -20 130 0
71 29 223 50 262 32 62 8 43 -139 -106z"/>
</g>
</svg>
